<svg width="48" height="48" viewBox="0 0 48 48" fill="none" xmlns="http://www.w3.org/2000/svg">
<rect width="48" height="48" rx="12" fill="white" fill-opacity="0.09"/>
<path d="M34.4466 24.4688L31.4466 16.9688C31.3805 16.8035 31.2579 16.6672 31.1006 16.5841C30.9433 16.501 30.7615 16.4765 30.5878 16.515L24.75 17.8125V15.75C24.75 15.5511 24.671 15.3603 24.5303 15.2197C24.3897 15.079 24.1989 15 24 15C23.8011 15 23.6103 15.079 23.4697 15.2197C23.329 15.3603 23.25 15.5511 23.25 15.75V18.1481L17.0869 19.5178C16.9681 19.5441 16.8574 19.5988 16.7645 19.6774C16.6715 19.756 16.5991 19.8559 16.5535 19.9688V19.9744L13.5535 27.4688C13.5176 27.5581 13.4994 27.6537 13.5 27.75C13.5 29.9353 15.8006 30.75 17.25 30.75C18.6994 30.75 21 29.9353 21 27.75C21.0006 27.6537 20.9825 27.5581 20.9466 27.4688L18.2738 20.7909L23.25 19.6875V31.5H21.75C21.5511 31.5 21.3603 31.579 21.2197 31.7197C21.079 31.8603 21 32.0511 21 32.25C21 32.4489 21.079 32.6397 21.2197 32.7803C21.3603 32.921 21.5511 33 21.75 33H26.25C26.4489 33 26.6397 32.921 26.7803 32.7803C26.921 32.6397 27 32.4489 27 32.25C27 32.0511 26.921 31.8603 26.7803 31.7197C26.6397 31.579 26.4489 31.5 26.25 31.5H24.75V19.3519L29.5313 18.2906L27.0535 24.4688C27.0176 24.5581 26.9994 24.6537 27 24.75C27 26.9353 29.3006 27.75 30.75 27.75C32.1994 27.75 34.5 26.9353 34.5 24.75C34.5006 24.6537 34.4825 24.5581 34.4466 24.4688ZM17.25 29.25C16.5441 29.25 15.1163 28.9116 15.0066 27.8775L17.25 22.2694L19.4935 27.8775C19.3838 28.9116 17.956 29.25 17.25 29.25ZM30.75 26.25C30.0441 26.25 28.6163 25.9116 28.5066 24.8775L30.75 19.2694L32.9935 24.8775C32.8838 25.9116 31.456 26.25 30.75 26.25Z" fill="white"/>
</svg>
