<svg width="40" height="40" viewBox="0 0 40 40" fill="none" xmlns="http://www.w3.org/2000/svg">
<rect width="40" height="40" rx="12" fill="#3B4F5A" fill-opacity="0.09"/>
<path d="M16.5 11.6665H23.5C26.1667 11.6665 28.3333 13.8332 28.3333 16.4998V23.4998C28.3333 24.7817 27.8241 26.0111 26.9177 26.9175C26.0112 27.8239 24.7819 28.3332 23.5 28.3332H16.5C13.8333 28.3332 11.6667 26.1665 11.6667 23.4998V16.4998C11.6667 15.218 12.1759 13.9886 13.0823 13.0822C13.9887 12.1757 15.2181 11.6665 16.5 11.6665ZM16.3333 13.3332C15.5377 13.3332 14.7746 13.6492 14.212 14.2119C13.6494 14.7745 13.3333 15.5375 13.3333 16.3332V23.6665C13.3333 25.3248 14.675 26.6665 16.3333 26.6665H23.6667C24.4623 26.6665 25.2254 26.3504 25.788 25.7878C26.3506 25.2252 26.6667 24.4622 26.6667 23.6665V16.3332C26.6667 14.6748 25.325 13.3332 23.6667 13.3332H16.3333ZM24.375 14.5832C24.6513 14.5832 24.9162 14.6929 25.1116 14.8883C25.3069 15.0836 25.4167 15.3486 25.4167 15.6248C25.4167 15.9011 25.3069 16.1661 25.1116 16.3614C24.9162 16.5568 24.6513 16.6665 24.375 16.6665C24.0987 16.6665 23.8338 16.5568 23.6384 16.3614C23.4431 16.1661 23.3333 15.9011 23.3333 15.6248C23.3333 15.3486 23.4431 15.0836 23.6384 14.8883C23.8338 14.6929 24.0987 14.5832 24.375 14.5832ZM20 15.8332C21.1051 15.8332 22.1649 16.2722 22.9463 17.0536C23.7277 17.835 24.1667 18.8948 24.1667 19.9998C24.1667 21.1049 23.7277 22.1647 22.9463 22.9461C22.1649 23.7275 21.1051 24.1665 20 24.1665C18.8949 24.1665 17.8351 23.7275 17.0537 22.9461C16.2723 22.1647 15.8333 21.1049 15.8333 19.9998C15.8333 18.8948 16.2723 17.835 17.0537 17.0536C17.8351 16.2722 18.8949 15.8332 20 15.8332ZM20 17.4998C19.3369 17.4998 18.7011 17.7632 18.2322 18.2321C17.7634 18.7009 17.5 19.3368 17.5 19.9998C17.5 20.6629 17.7634 21.2988 18.2322 21.7676C18.7011 22.2364 19.3369 22.4998 20 22.4998C20.663 22.4998 21.2989 22.2364 21.7678 21.7676C22.2366 21.2988 22.5 20.6629 22.5 19.9998C22.5 19.3368 22.2366 18.7009 21.7678 18.2321C21.2989 17.7632 20.663 17.4998 20 17.4998Z" fill="#3B4F5A"/>
</svg>
