<svg width="21" height="20" viewBox="0 0 21 20" fill="none" xmlns="http://www.w3.org/2000/svg">
<path d="M16.3747 4.09155C15.6106 3.31997 14.7005 2.70819 13.6976 2.29185C12.6947 1.87551 11.6189 1.66295 10.533 1.66655C5.98301 1.66655 2.27467 5.37488 2.27467 9.92488C2.27467 11.3832 2.65801 12.7999 3.37467 14.0499L2.20801 18.3332L6.58301 17.1832C7.79134 17.8416 9.14967 18.1915 10.533 18.1915C15.083 18.1915 18.7913 14.4832 18.7913 9.93322C18.7913 7.72488 17.933 5.64988 16.3747 4.09155ZM10.533 16.7915C9.29967 16.7915 8.09134 16.4582 7.03301 15.8332L6.78301 15.6832L4.18301 16.3665L4.87467 13.8332L4.70801 13.5749C4.02263 12.4808 3.65878 11.2159 3.65801 9.92488C3.65801 6.14155 6.74134 3.05822 10.5247 3.05822C12.358 3.05822 14.083 3.77488 15.3747 5.07488C16.0144 5.71144 16.5213 6.46867 16.866 7.30266C17.2108 8.13664 17.3865 9.03079 17.383 9.93322C17.3997 13.7165 14.3163 16.7915 10.533 16.7915ZM14.2997 11.6582C14.0913 11.5582 13.0747 11.0582 12.8913 10.9832C12.6997 10.9165 12.5663 10.8832 12.4247 11.0832C12.283 11.2915 11.8913 11.7582 11.7747 11.8916C11.658 12.0332 11.533 12.0499 11.3247 11.9415C11.1163 11.8415 10.4497 11.6166 9.66634 10.9165C9.04967 10.3665 8.64134 9.69155 8.51634 9.48322C8.39967 9.27488 8.49967 9.16655 8.60801 9.05822C8.69967 8.96655 8.81634 8.81655 8.91634 8.69988C9.01634 8.58322 9.05801 8.49155 9.12467 8.35822C9.19134 8.21655 9.15801 8.09988 9.10801 7.99988C9.05801 7.89988 8.64134 6.88322 8.47467 6.46655C8.30801 6.06655 8.13301 6.11655 8.00801 6.10822H7.60801C7.46634 6.10822 7.24967 6.15822 7.05801 6.36655C6.87467 6.57488 6.34134 7.07488 6.34134 8.09155C6.34134 9.10822 7.08301 10.0915 7.18301 10.2249C7.28301 10.3666 8.64134 12.4499 10.708 13.3415C11.1997 13.5582 11.583 13.6832 11.883 13.7749C12.3747 13.9332 12.8247 13.9082 13.183 13.8582C13.583 13.7999 14.408 13.3582 14.5747 12.8749C14.7497 12.3915 14.7497 11.9832 14.6913 11.8916C14.633 11.7999 14.508 11.7582 14.2997 11.6582Z" fill="#171717"/>
</svg>
